<svg xmlns="http://www.w3.org/2000/svg" width="128" height="128" viewBox="0 0 128 128">
  <defs>
    <linearGradient id="neon" x1="20" y1="120" x2="120" y2="10" gradientUnits="userSpaceOnUse">
      <stop offset="0" stop-color="#00D5FF"/>
      <stop offset="0.55" stop-color="#8A3FFC"/>
      <stop offset="1" stop-color="#FF4FD8"/>
    </linearGradient>
    <linearGradient id="glass" x1="10" y1="10" x2="118" y2="118" gradientUnits="userSpaceOnUse">
      <stop offset="0" stop-color="#FFFFFF" stop-opacity="0.9"/>
      <stop offset="1" stop-color="#FFFFFF" stop-opacity="0.25"/>
    </linearGradient>
    <filter id="glow" x="-40%" y="-40%" width="180%" height="180%">
      <feGaussianBlur stdDeviation="3.5" result="b"/>
      <feColorMatrix in="b" type="matrix"
        values="1 0 0 0 0
                0 1 0 0 0
                0 0 1 0 0
                0 0 0 0.85 0" result="g"/>
      <feMerge>
        <feMergeNode in="g"/>
        <feMergeNode in="SourceGraphic"/>
      </feMerge>
    </filter>
    <filter id="inner" x="-20%" y="-20%" width="140%" height="140%">
      <feGaussianBlur stdDeviation="1.2" result="ib"/>
      <feComposite in="ib" in2="SourceAlpha" operator="in" result="i"/>
      <feColorMatrix in="i" type="matrix"
        values="1 0 0 0 1
                0 1 0 0 1
                0 0 1 0 1
                0 0 0 0.25 0" />
    </filter>
    <clipPath id="clip">
      <rect x="10" y="10" width="108" height="108" rx="18"/>
    </clipPath>
  </defs>
  <g clip-path="url(#clip)">
    <path d="M10,10 H118 V118 H10 Z" fill="#0B0F1A"/>
    <path d="M-8,130 L130,-8 L130,130 Z" fill="#10182A" opacity="0.9"/>
    <path d="M-8,130 L130,-8 L130,130 Z" fill="url(#neon)" opacity="0.65"/>
    <path d="M0,124 L124,0" stroke="url(#neon)" stroke-width="6" opacity="0.95" filter="url(#glow)"/>
    <path d="M0,124 L124,0" stroke="#FFFFFF" stroke-opacity="0.55" stroke-width="1.5"/>
    <g opacity="0.9">
      <rect x="22" y="26" width="24" height="76" rx="8" fill="#0F1526" stroke="#FFFFFF" stroke-opacity="0.12"/>
      <rect x="52" y="26" width="24" height="76" rx="8" fill="#0F1526" stroke="#FFFFFF" stroke-opacity="0.12"/>
      <rect x="82" y="26" width="24" height="76" rx="8" fill="#0F1526" stroke="#FFFFFF" stroke-opacity="0.12"/>
    </g>
    <g stroke="#FFFFFF" stroke-opacity="0.35" stroke-linecap="round" stroke-width="3">
      <path d="M28 40 H40"/>
      <path d="M28 54 H42"/>
      <path d="M58 46 H70"/>
    </g>
    <g filter="url(#glow)" stroke="url(#neon)" stroke-linecap="round" stroke-width="4">
      <path d="M88 42 H102"/>
      <path d="M86 58 H104"/>
      <path d="M84 74 H100"/>
    </g>
    <g stroke="#FFFFFF" stroke-opacity="0.65" stroke-linecap="round" stroke-width="1.6">
      <path d="M88 42 H102"/>
      <path d="M86 58 H104"/>
      <path d="M84 74 H100"/>
    </g>
    <circle cx="98" cy="22" r="34" fill="#FFFFFF" opacity="0.06" filter="url(#inner)"/>
  </g>
  <rect x="10" y="10" width="108" height="108" rx="18"
        fill="none" stroke="url(#glass)" stroke-width="2.5"/>
  <rect x="10" y="10" width="108" height="108" rx="18"
        fill="none" stroke="url(#neon)" stroke-width="1.2" opacity="0.35" filter="url(#glow)"/>
</svg>